<svg width="214" height="116" viewBox="0 0 214 116" fill="none" xmlns="http://www.w3.org/2000/svg">
<g clip-path="url(#clip0_233_403)">
<rect width="214" height="116" fill="white"/>
<path d="M46.0521 105.215C50.1439 105.215 53.461 98.0076 53.461 89.1162C53.461 80.2249 50.1439 73.0171 46.0521 73.0171C41.9602 73.0171 38.6431 80.2249 38.6431 89.1162C38.6431 98.0076 41.9602 105.215 46.0521 105.215Z" fill="#E6E6E6"/>
<path d="M46.7361 115.468C43.7688 96.5082 46.7063 77.6167 46.7363 77.4282L47.3135 77.5323C47.2836 77.7199 44.363 96.5121 47.3136 115.366L46.7361 115.468Z" fill="#3F3D56"/>
<path d="M52.575 85.6544L45.8752 89.4707L46.1514 90.0206L52.8511 86.2042L52.575 85.6544Z" fill="#3F3D56"/>
<path d="M39.0805 87.5664L38.8042 88.1162L45.5031 91.9347L45.7795 91.385L39.0805 87.5664Z" fill="#3F3D56"/>
<path d="M195.478 1.07471H183.334L183.334 45.8396H195.478L195.478 1.07471Z" fill="#3F3D56"/>
<path d="M203.497 37.4182L173.963 0L114.678 0.577271L78.7144 37.8811L79.441 38.3786H79.1816L79.1816 115.971H203.418L203.418 38.3786L203.497 37.4182Z" fill="#3F3D56"/>
<path d="M173.993 0.0795898L137.096 46.1471L137.096 115.971H203.418L203.418 37.3837L173.993 0.0795898Z" fill="#D0B049"/>
<path d="M177.263 77.3574H163.718L163.718 90.1068H177.263L177.263 77.3574Z" fill="#3F3D56"/>
<path d="M177.263 55.2896H163.718L163.718 67.8367H177.263L177.263 55.2896Z" fill="#3F3D56"/>
<path d="M177.263 77.3574H163.718L163.718 90.1068H177.263L177.263 77.3574Z" fill="white"/>
<path d="M177.263 55.2896H163.718L163.718 67.8367H177.263L177.263 55.2896Z" fill="white"/>
<path d="M127.898 113.696C127.898 113.696 128.189 107.216 134.141 107.97L127.898 113.696Z" fill="#E6E6E6"/>
<path d="M126.216 107.53C127.862 107.53 129.196 106.109 129.196 104.357C129.196 102.605 127.862 101.185 126.216 101.185C124.571 101.185 123.237 102.605 123.237 104.357C123.237 106.109 124.571 107.53 126.216 107.53Z" fill="#D0B049"/>
<path d="M126.573 109.7H125.732L125.732 115.969H126.573L126.573 109.7Z" fill="#E6E6E6"/>
<path d="M28.2504 95.7759C36.2536 95.7759 42.7415 81.6782 42.7415 64.2879C42.7415 46.8975 36.2536 32.7998 28.2504 32.7998C20.2472 32.7998 13.7593 46.8975 13.7593 64.2879C13.7593 81.6782 20.2472 95.7759 28.2504 95.7759Z" fill="#D0B049"/>
<path d="M29.8645 115.78C24.0684 78.7452 29.806 41.8454 29.8646 41.4771L30.4418 41.5812C30.3833 41.9487 24.6626 78.7492 30.442 115.678L29.8645 115.78Z" fill="#3F3D56"/>
<path d="M41.1406 57.7797L28.0364 65.2441L28.3125 65.794L41.4167 58.3295L41.1406 57.7797Z" fill="#3F3D56"/>
<path d="M14.4829 61.5186L14.2065 62.0684L27.3088 69.5367L27.5851 68.9869L14.4829 61.5186Z" fill="#3F3D56"/>
<path d="M62.5714 88.4249C73.5232 88.4249 82.4013 69.1333 82.4013 45.336C82.4013 21.5386 73.5232 2.24707 62.5714 2.24707C51.6196 2.24707 42.7415 21.5386 42.7415 45.336C42.7415 69.1333 51.6196 88.4249 62.5714 88.4249Z" fill="#D0B049"/>
<path d="M64.8866 115.78C56.9581 65.1198 64.8066 14.6445 64.8868 14.1406L65.464 14.2447C65.3839 14.7477 57.5523 65.1238 65.4641 115.678L64.8866 115.78Z" fill="#3F3D56"/>
<path d="M80.2616 36.5311L62.3296 46.7456L62.6058 47.2955L80.5378 37.081L80.2616 36.5311Z" fill="#3F3D56"/>
<path d="M43.6808 41.648L43.4045 42.1978L61.334 52.4173L61.6103 51.8675L43.6808 41.648Z" fill="#3F3D56"/>
<path d="M214 115.458H0L-5.43665e-10 116H214L214 115.458Z" fill="#3F3D56"/>
<path d="M117.07 73.9746H103.525L103.525 86.724H117.07L117.07 73.9746Z" fill="#3F3D56"/>
<path d="M117.07 51.9067H103.525L103.525 64.4539H117.07L117.07 51.9067Z" fill="#3F3D56"/>
<path d="M117.07 73.9746H103.525L103.525 86.724H117.07L117.07 73.9746Z" fill="white"/>
<path d="M117.07 51.9067H103.525L103.525 64.4539H117.07L117.07 51.9067Z" fill="white"/>
</g>
<defs>
<clipPath id="clip0_233_403">
<rect width="214" height="116" fill="white"/>
</clipPath>
</defs>
</svg>
