<svg width="525" height="427" viewBox="0 0 525 427" fill="none" xmlns="http://www.w3.org/2000/svg">
<path d="M0.684554 376.527C2.76264 359.633 13.1187 342.987 29.0553 337.489C22.7703 354.878 22.7717 373.954 29.0591 391.341C31.5079 398.038 34.9213 405.229 32.6179 411.978C31.1847 416.178 27.6786 419.391 23.7595 421.4C19.8402 423.409 15.4906 424.367 11.1954 425.305L10.3501 426.012C3.5315 410.446 -1.39354 393.421 0.684554 376.527Z" fill="#F0F0F0"/>
<path d="M29.213 337.809C19.9323 348.322 14.1641 361.524 12.7277 375.54C12.3655 378.552 12.4751 381.603 13.0525 384.58C13.7077 387.462 15.1142 390.114 17.126 392.26C18.9621 394.3 21.0738 396.171 22.3875 398.626C23.0414 399.893 23.4232 401.285 23.5076 402.711C23.5921 404.138 23.3773 405.566 22.8774 406.903C21.7175 410.266 19.4315 413.008 17.1038 415.61C14.5194 418.499 11.7897 421.459 10.6911 425.289C10.558 425.753 9.85342 425.518 9.98633 425.054C11.8977 418.39 18.2967 414.604 21.3483 408.602C22.7723 405.801 23.37 402.549 22.035 399.592C20.8677 397.007 18.6917 395.076 16.8151 393.027C14.8221 390.962 13.3596 388.435 12.5553 385.667C11.8298 382.729 11.6041 379.688 11.8878 376.673C12.4197 369.877 14.0053 363.206 16.5865 356.907C19.4931 349.702 23.5974 343.052 28.7219 337.246C29.0392 336.887 29.5282 337.452 29.213 337.809V337.809Z" fill="white"/>
<path d="M12.9275 370.999C10.6342 370.437 8.6135 369.068 7.22623 367.138C5.83897 365.208 5.17549 362.842 5.35429 360.463C5.39211 359.982 6.13358 360.018 6.09571 360.5C5.92517 362.715 6.54342 364.919 7.83887 366.714C9.13432 368.508 11.0216 369.776 13.1602 370.287C13.6248 370.399 13.3895 371.11 12.9275 370.999Z" fill="white"/>
<path d="M16.0605 391.35C20.2025 388.85 23.2602 384.863 24.6238 380.185C24.7585 379.721 25.4631 379.957 25.3285 380.42C23.9005 385.286 20.7102 389.428 16.3943 392.02C15.9828 392.267 15.6512 391.596 16.0605 391.35H16.0605Z" fill="white"/>
<path d="M20.1814 350.413C21.0239 350.817 21.9525 351.004 22.884 350.956C23.8156 350.909 24.7207 350.628 25.5183 350.139C25.9265 349.887 26.2577 350.559 25.8521 350.809C24.9684 351.345 23.9684 351.654 22.9393 351.709C21.9102 351.764 20.8835 351.564 19.9487 351.125C19.8572 351.091 19.7818 351.023 19.738 350.935C19.6942 350.847 19.6851 350.746 19.7127 350.651C19.744 350.557 19.8108 350.479 19.8985 350.435C19.9863 350.39 20.088 350.382 20.1814 350.413Z" fill="white"/>
<path d="M77.6313 367.664C77.3808 367.829 77.1303 367.993 76.8795 368.164C73.5233 370.396 70.3518 372.899 67.3966 375.649C67.1647 375.858 66.9329 376.074 66.7075 376.289C59.6575 382.992 53.8997 390.961 49.7268 399.789C48.0696 403.304 46.6792 406.941 45.5677 410.668C44.033 415.817 42.7741 421.522 39.7362 425.733C39.4241 426.176 39.0852 426.599 38.7214 427H11.2678C11.2054 426.968 11.1427 426.943 11.08 426.911L9.98389 426.962C10.0279 426.766 10.0778 426.563 10.1218 426.367C10.1469 426.253 10.1781 426.139 10.2032 426.025C10.2218 425.949 10.2408 425.873 10.2533 425.803C10.2594 425.778 10.2659 425.752 10.272 425.733C10.2845 425.664 10.3035 425.6 10.316 425.537C10.5916 424.404 10.8755 423.27 11.1678 422.137C11.1678 422.13 11.1678 422.13 11.1739 422.124C13.4228 413.493 16.4041 404.975 20.5694 397.186C20.6948 396.952 20.8199 396.711 20.9578 396.477C22.8546 392.977 25.0312 389.639 27.4658 386.497C28.8044 384.781 30.2281 383.135 31.7314 381.564C35.6234 377.514 40.1213 374.107 45.0603 371.47C54.9069 366.214 66.3066 364.2 76.8297 367.411C77.0988 367.493 77.3621 367.575 77.6313 367.664Z" fill="#F0F0F0"/>
<path d="M77.5697 368.016C63.8988 370.761 51.4311 377.792 41.9373 388.108C39.8545 390.293 38.1252 392.795 36.8132 395.524C35.6201 398.224 35.1639 401.197 35.492 404.136C35.7434 406.882 36.3152 409.661 35.902 412.421C35.6698 413.83 35.1454 415.174 34.3634 416.365C33.5813 417.555 32.5592 418.565 31.3641 419.328C28.4351 421.307 24.9773 422.105 21.5691 422.766C17.7849 423.499 13.8428 424.201 10.6845 426.591C10.3019 426.88 9.87983 426.263 10.2619 425.974C15.7568 421.816 23.1204 422.689 29.1315 419.754C31.9365 418.384 34.3501 416.151 35.045 412.978C35.6526 410.203 35.0655 407.337 34.7871 404.558C34.4255 401.697 34.7625 398.789 35.7687 396.089C36.939 393.302 38.57 390.736 40.5918 388.502C45.0641 383.399 50.3023 379.038 56.1145 375.58C62.7262 371.596 69.9633 368.785 77.5127 367.268C77.98 367.174 78.0339 367.923 77.5697 368.016H77.5697Z" fill="white"/>
<path d="M44.8011 384.604C43.3052 382.759 42.5069 380.436 42.5487 378.051C42.5904 375.665 43.4696 373.372 45.0291 371.582C45.3459 371.22 45.916 371.701 45.5988 372.063C44.1435 373.728 43.3248 375.863 43.2904 378.085C43.256 380.306 44.0082 382.467 45.4112 384.177C45.7156 384.549 45.1038 384.974 44.8011 384.604H44.8011Z" fill="white"/>
<path d="M35.1836 402.76C39.9798 403.285 44.7953 401.963 48.6701 399.058C49.0538 398.77 49.4759 399.387 49.0927 399.675C45.0549 402.69 40.0408 404.056 35.051 403.499C34.5755 403.445 34.7106 402.707 35.1836 402.76Z" fill="white"/>
<path d="M62.8531 372.583C63.2848 373.418 63.915 374.133 64.6872 374.662C65.4595 375.191 66.3495 375.517 67.2775 375.612C67.7535 375.66 67.6178 376.398 67.1449 376.351C66.1201 376.241 65.1376 375.879 64.2831 375.296C63.4286 374.714 62.7282 373.929 62.2431 373.01C62.1902 372.927 62.1704 372.827 62.1878 372.73C62.2052 372.633 62.2585 372.546 62.3368 372.488C62.4179 372.432 62.5176 372.41 62.6143 372.428C62.711 372.446 62.7968 372.501 62.8531 372.583Z" fill="white"/>
<path d="M466.046 40.8526C443.371 16.5134 412.156 2.13951 379.11 0.82019V128.744L466.046 40.8526Z" fill="#D0B049"/>
<path d="M466.046 56.7809L379.11 144.673H500.605C500.648 111.981 488.277 80.5201 466.046 56.7809Z" fill="#010B2E"/>
<path d="M500.735 153.865C500.74 161.838 500.01 169.795 498.555 177.631C498.442 178.252 498.323 178.866 498.198 179.48C495.455 193.15 490.503 206.269 483.541 218.311C483.172 218.957 482.789 219.603 482.407 220.236V220.243C475.546 231.656 466.966 241.918 456.977 250.658C456.482 251.095 455.987 251.525 455.486 251.95C434.019 270.209 407.141 280.709 379.107 281.789V153.865H500.735Z" fill="#D0B049"/>
<path d="M366.819 281.9C368.501 281.9 370.173 281.857 371.839 281.791V153.862L279.816 246.897C303.304 269.413 334.451 281.944 366.819 281.9Z" fill="#010B2E"/>
<path d="M366.991 16.6343C297.046 16.6343 240.346 73.959 240.346 144.673H372.142V16.7484C370.432 16.6793 368.717 16.6343 366.991 16.6343Z" fill="#010B2E"/>
<path d="M336.778 153.865L310.151 180.785L309.28 181.665L309.261 181.684L286.042 205.152L285.159 206.045L260.073 231.407L259.19 232.3V232.306L244.752 246.896C232.216 234.944 222.232 220.525 215.414 204.526C208.596 188.526 205.089 171.286 205.109 153.865H336.778Z" fill="#FFF9EA"/>
<path d="M130.204 270.394C131.173 269.8 132.001 268.998 132.63 268.045C133.259 267.092 133.674 266.011 133.845 264.879C134.017 263.746 133.94 262.589 133.622 261.49C133.303 260.391 132.75 259.375 132.001 258.515L133.046 200.929L120.563 201.986L120.592 258.127C119.247 259.495 118.444 261.314 118.337 263.24C118.229 265.166 118.824 267.065 120.009 268.577C121.193 270.089 122.886 271.109 124.765 271.444C126.644 271.779 128.579 271.405 130.204 270.394Z" fill="#FFB6B6"/>
<path d="M135.013 215.025L118.688 213.452C118.223 213.407 117.774 213.261 117.37 213.025C116.966 212.789 116.617 212.467 116.347 212.083C116.077 211.698 115.893 211.259 115.806 210.795C115.719 210.332 115.732 209.855 115.843 209.397L119.764 193.349C120.004 190.947 121.176 188.74 123.024 187.211C124.871 185.682 127.242 184.956 129.618 185.192C131.994 185.429 134.181 186.608 135.698 188.471C137.216 190.334 137.94 192.73 137.713 195.133L138.564 211.587C138.589 212.058 138.512 212.529 138.34 212.967C138.168 213.406 137.905 213.802 137.568 214.128C137.231 214.454 136.828 214.704 136.387 214.858C135.947 215.013 135.478 215.07 135.014 215.025H135.013Z" fill="#E4E4E4"/>
<path d="M107.861 420.219H114.195L117.209 395.517L107.86 395.517L107.861 420.219Z" fill="#FFB6B6"/>
<path d="M106.245 418.129L118.72 418.128H118.72C120.829 418.129 122.851 418.975 124.342 420.483C125.833 421.99 126.67 424.034 126.671 426.166V426.427L106.245 426.428L106.245 418.129Z" fill="#2F2E41"/>
<path d="M166.247 420.219H172.582L175.596 395.517L166.247 395.517L166.247 420.219Z" fill="#FFB6B6"/>
<path d="M164.632 418.129L177.107 418.128H177.108C179.216 418.129 181.238 418.975 182.729 420.483C184.22 421.99 185.058 424.034 185.058 426.166V426.427L164.632 426.428L164.632 418.129Z" fill="#2F2E41"/>
<path d="M158.599 221.767L162.732 248.409L123.463 248.931L128.63 223.335L158.599 221.767Z" fill="#FFB6B6"/>
<path d="M161.593 241.904C174.053 263.847 175.116 338.253 175.65 415.102H165.058L139.739 302.998L116.488 412.175H106.154L113.388 289.416C113.388 289.416 111.254 264.776 122.171 250.237L124.829 242.475L161.593 241.904Z" fill="#2F2E41"/>
<path d="M129.978 236.481C129.748 236.481 129.52 236.458 129.295 236.413C128.539 236.26 127.853 235.861 127.342 235.277C126.831 234.693 126.524 233.956 126.466 233.179C126.078 227.802 124.153 218.443 120.746 205.361C119.596 200.915 119.85 196.216 121.474 191.924C123.099 187.631 126.01 183.96 129.802 181.425C133.594 178.89 138.075 177.618 142.618 177.788C147.16 177.957 151.537 179.56 155.133 182.371C157.436 184.154 159.358 186.39 160.783 188.944C162.209 191.498 163.108 194.318 163.427 197.233C165.12 212.31 161.928 227.448 160.477 233.257C160.286 234.015 159.854 234.689 159.249 235.176C158.643 235.663 157.896 235.936 157.122 235.952L130.053 236.48C130.028 236.481 130.003 236.481 129.978 236.481Z" fill="#E4E4E4"/>
<path d="M205.604 188.113C205.441 188.482 205.308 188.863 205.204 189.253L171.321 200.893L164.774 195.111L154.851 203.96L165.457 215.335C166.314 216.254 167.443 216.868 168.674 217.083C169.905 217.298 171.171 217.104 172.284 216.53L208.541 197.806C209.852 198.619 211.377 199.009 212.913 198.925C214.449 198.84 215.923 198.285 217.139 197.333C218.355 196.381 219.256 195.077 219.721 193.595C220.186 192.113 220.194 190.522 219.744 189.035C219.293 187.549 218.405 186.236 217.199 185.271C215.992 184.307 214.524 183.736 212.989 183.636C211.454 183.536 209.925 183.911 208.606 184.711C207.287 185.51 206.24 186.697 205.604 188.113Z" fill="#FFB6B6"/>
<path d="M170.14 201.53L157.788 212.437C157.437 212.747 157.023 212.977 156.576 213.111C156.129 213.245 155.658 213.281 155.196 213.214C154.734 213.148 154.292 212.982 153.899 212.727C153.506 212.472 153.172 212.135 152.92 211.738L144.085 197.829C142.525 196.002 141.745 193.624 141.916 191.217C142.087 188.809 143.195 186.569 144.998 184.986C146.801 183.404 149.151 182.609 151.533 182.775C153.914 182.942 156.134 184.056 157.704 185.874L170.11 196.559C170.466 196.865 170.751 197.244 170.948 197.672C171.145 198.1 171.248 198.566 171.251 199.037C171.254 199.509 171.156 199.976 170.964 200.406C170.773 200.836 170.492 201.219 170.14 201.53Z" fill="#E4E4E4"/>
<path d="M153.549 165.659C157.948 157.525 154.991 147.325 146.944 142.878C138.898 138.432 128.81 141.421 124.411 149.556C120.013 157.691 122.97 167.89 131.016 172.337C139.062 176.784 149.151 173.794 153.549 165.659Z" fill="#FFB6B6"/>
<path d="M143.551 134.373H140.184C138.568 133.862 136.884 133.603 135.191 133.605C134.912 133.605 134.635 133.612 134.359 133.626C131.211 133.826 128.201 135.004 125.74 136.999C123.279 138.993 121.488 141.707 120.609 144.77C116.845 157.474 118.471 171.532 118.471 171.532C123.966 174.044 132.364 175.904 144.767 174.375L146.591 166.645L146.439 174.144C148.187 173.898 150.012 173.581 151.911 173.191V156.656H159.512C159.511 144.347 155.727 134.373 143.551 134.373Z" fill="#2F2E41"/>
<path d="M523.002 282.618H284.357C284.191 282.618 284.032 282.551 283.914 282.433C283.797 282.314 283.731 282.153 283.731 281.985C283.731 281.817 283.797 281.656 283.914 281.537C284.032 281.418 284.191 281.352 284.357 281.352H523.002C523.168 281.352 523.327 281.418 523.445 281.537C523.562 281.656 523.628 281.817 523.628 281.985C523.628 282.153 523.562 282.314 523.445 282.433C523.327 282.551 523.168 282.618 523.002 282.618Z" fill="#F0F0F0"/>
<path d="M523.315 363.358V122.088C523.315 121.92 523.381 121.759 523.498 121.64C523.616 121.522 523.775 121.455 523.941 121.455C524.108 121.455 524.267 121.522 524.384 121.64C524.502 121.759 524.568 121.92 524.568 122.088V363.358C524.568 363.526 524.502 363.687 524.384 363.806C524.267 363.924 524.108 363.991 523.941 363.991C523.775 363.991 523.616 363.924 523.498 363.806C523.381 363.687 523.315 363.526 523.315 363.358Z" fill="#F0F0F0"/>
<path d="M487.612 314.914C493.147 314.914 497.634 310.378 497.634 304.782C497.634 299.186 493.147 294.65 487.612 294.65C482.077 294.65 477.59 299.186 477.59 304.782C477.59 310.378 482.077 314.914 487.612 314.914Z" fill="#F0F0F0"/>
<path d="M243.957 29.3166C249.492 29.3166 253.979 24.7803 253.979 19.1846C253.979 13.5888 249.492 9.05249 243.957 9.05249C238.422 9.05249 233.935 13.5888 233.935 19.1846C233.935 24.7803 238.422 29.3166 243.957 29.3166Z" fill="#F0F0F0"/>
<path d="M239.898 426.367C239.898 426.45 239.882 426.532 239.851 426.609C239.819 426.686 239.773 426.756 239.715 426.815C239.657 426.874 239.587 426.921 239.511 426.952C239.435 426.984 239.354 427 239.271 427H0.626365C0.460242 427 0.300924 426.933 0.183457 426.814C0.0659913 426.696 0 426.535 0 426.367C0 426.199 0.0659913 426.038 0.183457 425.919C0.300924 425.8 0.460242 425.733 0.626365 425.733H239.271C239.354 425.733 239.435 425.749 239.511 425.781C239.587 425.813 239.657 425.859 239.715 425.918C239.773 425.977 239.819 426.047 239.851 426.124C239.882 426.201 239.898 426.283 239.898 426.367Z" fill="#CACACA"/>
<path d="M259.19 232.305C238.41 211.499 226.268 183.46 225.241 153.911L227.745 153.82C228.75 182.726 240.628 210.156 260.956 230.509L259.19 232.305Z" fill="#3F3D56"/>
<path d="M286.067 205.178L284.25 206.913C270.408 192.135 260.637 173.947 255.914 154.163L257.129 153.865H258.419C263.065 173.096 272.585 190.772 286.042 205.152L286.067 205.178Z" fill="#3F3D56"/>
<path d="M310.219 180.873L309.28 181.665L309.261 181.684L308.297 182.494C301.268 173.996 295.477 164.526 291.096 154.372L292.243 153.865H293.615C297.857 163.574 303.423 172.636 310.151 180.785C310.172 180.816 310.195 180.845 310.219 180.873Z" fill="#3F3D56"/>
</svg>
