<?xml version="1.0" encoding="utf-8"?>
<!-- Generator: Adobe Illustrator 26.5.0, SVG Export Plug-In . SVG Version: 6.00 Build 0)  -->
<svg version="1.1" id="Layer_1" xmlns="http://www.w3.org/2000/svg" xmlns:xlink="http://www.w3.org/1999/xlink" x="0px" y="0px"
	 viewBox="0 0 155 56.4" style="enable-background:new 0 0 155 56.4;" xml:space="preserve">
<style type="text/css">
	.st0{fill:#010B2E;}
	.st1{opacity:0.984;}
	.st2{opacity:0.984;fill:#FBFCFF;enable-background:new    ;}
	.st3{fill:#FBFCFF;}
	.st4{fill:none;stroke:#010B2E;stroke-width:1.2384;}
</style>
<g>
	<path class="st0" d="M22.8,0h109.4C144.8,0,155,6.6,155,14.8v26.7c0,8.2-10.2,14.8-22.8,14.8H22.8C10.2,56.4,0,49.7,0,41.6V14.8
		C0,6.6,10.2,0,22.8,0z"/>
</g>
<g class="st1">
	<path class="st2" d="M50.8,9.1c0.5,0,1.9,29.1,1.6,30c-0.3,0.9-3.2,1.5-3.5,0.6C48.7,38.8,50.3,9.1,50.8,9.1z"/>
	<path class="st2" d="M50.8,9.1c0.5,0,2.1,29.1,1.8,30c-0.3,0.9-1.9,1.8-3.7,0.7C48.4,39.5,50.3,9.1,50.8,9.1z"/>
</g>
<path class="st2" d="M50.8,23.1c-0.4,0-6.1-10.8-5.9-11.2s11.6-0.3,11.8,0C56.9,12.3,51.1,23.1,50.8,23.1z"/>
<path class="st2" d="M50.8,27.8c-0.4,0-6.1-10.1-5.9-10.5c0.2-0.3,11.6-0.3,11.8,0C56.9,17.6,51.1,27.8,50.8,27.8z"/>
<path class="st3" d="M48.9,20.2c3.1,0.7,6.2,1.3,6.2,2.6c0,1.3-3.2,3.3-3.4,4.4c-0.3,1.2,3.1,1.3,3,2.1c-0.1,0.8-4.7,3.8-5.9,4.5
	c-0.3,0.1-1.3,0.7,0,0"/>
<path class="st4" d="M48.9,20.2c3.1,0.7,6.2,1.3,6.2,2.6c0,1.3-3.2,3.3-3.4,4.4c-0.3,1.2,3.1,1.3,3,2.1c-0.1,0.8-4.7,3.8-5.9,4.5
	 M48.8,33.8C47.5,34.5,48.5,34,48.8,33.8z"/>
<path class="st3" d="M24.2,29.9c0-0.7-0.1-1.1-0.3-1.4c-0.2-0.3-0.5-0.5-1.1-0.5h-0.2v-0.6h5.2c1.6,0,3,0.2,4.1,0.7
	c1.1,0.5,1.7,1.4,1.7,2.7c0,0.6-0.2,1.2-0.7,1.7c-0.5,0.5-1.1,0.9-2,1.1c2.2,0.2,3.3,1.2,3.3,3c0,1.3-0.5,2.3-1.6,2.8
	c-1.1,0.5-2.4,0.8-4.1,0.8h-4.3V29.9z M28.2,33.2c0.8,0,1.5-0.2,2-0.6c0.5-0.4,0.7-1,0.7-1.9c0-0.9-0.3-1.5-0.9-1.9
	c-0.6-0.4-1.3-0.6-2.1-0.6c-0.3,0-0.6,0-0.8,0.1l-0.3,0.1v4.9H28.2z M28.2,39.4c1.1,0,1.9-0.2,2.4-0.7c0.6-0.5,0.9-1.1,0.9-2
	c0-1.8-1.1-2.7-3.3-2.7h-1.5v5.1c0.1,0.1,0.3,0.1,0.4,0.1C27.4,39.4,27.7,39.4,28.2,39.4L28.2,39.4z M38.1,40.2
	c-0.5,0-0.8-0.1-1.1-0.2c-0.2-0.2-0.4-0.4-0.5-0.8c-0.1-0.4-0.2-0.9-0.2-1.5V27.4h2.5v10.2c0,0.7,0.1,1.1,0.3,1.5
	c0.2,0.3,0.5,0.5,1.1,0.5h0.2v0.6H38.1z M62,29.9c0-0.7-0.1-1.1-0.3-1.4c-0.2-0.3-0.5-0.5-1.1-0.5h-0.2v-0.6h2.3
	c0.5,0,0.8,0.1,1.1,0.2c0.2,0.2,0.4,0.4,0.5,0.8c0.1,0.3,0.2,0.8,0.2,1.5v3.2h5.2v-5.7h2.5v10.2c0,0.7,0.1,1.1,0.3,1.5
	c0.2,0.3,0.5,0.5,1.1,0.5h0.2v0.6h-2.3c-0.5,0-0.8-0.1-1.1-0.2c-0.2-0.2-0.4-0.4-0.5-0.8c-0.1-0.4-0.2-0.9-0.2-1.5V34h-5.2v6.2H62
	V29.9z M81.2,40.5c-1.3,0-2.4-0.3-3.4-0.9c-1-0.6-1.7-1.4-2.3-2.4c-0.5-1-0.8-2.2-0.8-3.4c0-1.3,0.3-2.4,0.8-3.4
	c0.5-1,1.3-1.8,2.3-2.4c1-0.6,2.1-0.9,3.4-0.9s2.4,0.3,3.3,0.9c1,0.6,1.7,1.4,2.3,2.4c0.5,1,0.8,2.2,0.8,3.4c0,1.3-0.3,2.4-0.8,3.4
	c-0.5,1-1.3,1.8-2.3,2.4S82.4,40.5,81.2,40.5z M81.2,39.7c1.2,0,2.1-0.5,2.7-1.5c0.6-1,1-2.5,1-4.4c0-1.9-0.3-3.3-1-4.3
	c-0.6-1-1.6-1.5-2.7-1.5s-2.1,0.5-2.7,1.5c-0.6,1-1,2.5-1,4.3c0,1.9,0.3,3.3,1,4.4C79.1,39.2,80,39.7,81.2,39.7z M92.8,28.3h-1.4
	c-0.7,0-1.3,0.2-1.7,0.5c-0.4,0.4-0.6,1-0.6,1.8h-0.6V29c0-1,0.6-1.5,1.7-1.5h9.1v0.9h-4.1v11.9h-2.5V28.3z M101.3,29.9
	c0-0.7-0.1-1.1-0.3-1.4c-0.2-0.3-0.5-0.5-1.1-0.5h-0.2v-0.6h8.6c1.1,0,1.7,0.5,1.7,1.5v1.6h-0.6c0-0.8-0.2-1.4-0.6-1.8
	c-0.4-0.4-1-0.6-1.8-0.6h-3.1v4.8h5.1V34h-5.1v5.3h3.3c0.7,0,1.4-0.2,1.8-0.5c0.5-0.3,0.9-0.9,1.2-1.7l0.5,0.2l-0.6,1.5
	c-0.2,0.5-0.4,0.8-0.6,1c-0.2,0.2-0.6,0.3-1.1,0.3h-7.2V29.9z M113,29.9c0-0.7-0.1-1.1-0.3-1.4c-0.2-0.3-0.5-0.5-1.1-0.5h-0.2v-0.6
	h2.3c0.5,0,0.8,0.1,1.1,0.2c0.2,0.2,0.4,0.4,0.5,0.8c0.1,0.3,0.2,0.8,0.2,1.5v9.4h6.7v0.9H113V29.9z M127.5,40.5
	c-0.7,0-1.4-0.1-2.1-0.3c-0.7-0.2-1.2-0.4-1.7-0.8c-0.4-0.4-0.6-0.8-0.6-1.2v-2.3h0.5c0.2,1.3,0.6,2.3,1.2,2.8s1.5,0.9,2.6,0.9
	c0.8,0,1.3-0.2,1.8-0.5c0.4-0.3,0.7-0.8,0.7-1.4c0-0.5-0.2-1-0.5-1.3c-0.3-0.4-0.8-0.8-1.5-1.2l-2.4-1.4c-0.9-0.5-1.5-1-1.9-1.6
	c-0.4-0.5-0.5-1.2-0.5-1.9c0-1,0.4-1.8,1.2-2.4c0.8-0.6,1.9-0.9,3.2-0.9c0.7,0,1.4,0.1,2.1,0.3c0.7,0.2,1.2,0.5,1.7,0.8
	c0.4,0.3,0.6,0.8,0.6,1.2v2.3h-0.5c-0.2-1.3-0.6-2.3-1.2-2.8c-0.6-0.6-1.4-0.9-2.4-0.9c-0.7,0-1.3,0.2-1.7,0.5
	c-0.4,0.3-0.6,0.8-0.6,1.4c0,0.5,0.2,0.9,0.5,1.3c0.3,0.3,0.8,0.7,1.6,1.1l2.4,1.4c0.9,0.5,1.6,1,1.9,1.5c0.4,0.5,0.6,1.1,0.6,1.8
	c0,1.1-0.4,2-1.3,2.6C130.2,40.2,129,40.5,127.5,40.5z"/>
</svg>
