<svg width="392" height="416" viewBox="0 0 392 416" fill="none" xmlns="http://www.w3.org/2000/svg">
<g clip-path="url(#clip0_233_248)">
<path d="M150.064 66.1949C160.328 66.1949 168.648 57.8624 168.648 47.5836C168.648 37.3049 160.328 28.9724 150.064 28.9724C139.801 28.9724 131.481 37.3049 131.481 47.5836C131.481 57.8624 139.801 66.1949 150.064 66.1949Z" fill="#FD6584"/>
<path d="M191.655 38.771C191.131 37.05 190.116 35.52 188.734 34.3695C187.353 33.2189 185.666 32.498 183.881 32.2956C183.839 32.2921 183.797 32.2921 183.756 32.2956C183.706 32.2799 183.654 32.2682 183.602 32.2607C177.38 31.4522 170.462 33.4178 165.806 37.6975C164.078 39.2613 162.695 41.1703 161.749 43.3017C160.885 42.121 159.748 41.1687 158.435 40.5274C157.121 39.8862 155.672 39.5752 154.211 39.6214C152.328 39.7461 150.528 40.4495 149.059 41.6358C147.589 42.822 146.52 44.4334 145.998 46.2501C145.941 46.4721 145.957 46.7067 146.043 46.9189C146.13 47.1312 146.283 47.3098 146.479 47.4281C147.038 47.9076 147.704 48.2468 148.421 48.4179C149.959 48.7455 151.511 49.0452 153.063 49.3171C156.097 49.8468 159.148 50.2766 162.215 50.6066C164.24 50.8226 166.27 50.9946 168.305 51.1224C172.509 51.3872 176.733 51.45 180.944 51.3175C183.032 51.2478 185.036 51.1781 186.943 50.258C188.333 49.5736 189.52 48.5382 190.388 47.2538C191.206 46.0185 191.742 44.6187 191.961 43.1531C192.18 41.6876 192.076 40.1917 191.655 38.771Z" fill="#E6E6E6"/>
<path d="M153.425 65.8854C153.389 65.1056 153.259 64.3331 153.035 63.5852C152.508 61.8644 151.492 60.3349 150.109 59.1846C148.727 58.0343 147.039 57.3132 145.254 57.1098C145.214 57.1063 145.175 57.1063 145.136 57.1098C145.083 57.0949 145.029 57.0833 144.975 57.075C141.532 56.6525 138.037 57.0122 134.751 58.1275C129.699 59.8213 125.265 63.2367 123.129 68.1159C122.264 66.9344 121.126 65.9818 119.811 65.3405C118.497 64.6992 117.046 64.3886 115.584 64.4356C113.701 64.5603 111.901 65.2637 110.432 66.45C108.962 67.6362 107.893 69.2476 107.371 71.0644C107.317 71.2863 107.335 71.5198 107.421 71.7313C107.507 71.9429 107.658 72.1217 107.852 72.2423C108.412 72.7205 109.078 73.0596 109.793 73.2321C111.339 73.5597 112.884 73.8594 114.443 74.1313C117.477 74.661 120.526 75.0909 123.588 75.4208C129.809 76.0897 136.07 76.3272 142.324 76.1317C144.405 76.062 146.416 75.9923 148.323 75.0723C149.711 74.3876 150.896 73.3521 151.761 72.0681C152.981 70.2473 153.566 68.0736 153.425 65.8854Z" fill="#E6E6E6"/>
<path d="M291.011 300.755H274.071V35.904C272.93 35.0606 271.781 34.2242 270.619 33.4087C270.389 33.2484 270.16 33.088 269.93 32.9277C256.532 23.542 242.038 15.8314 226.772 9.96754L223.487 55.3442L223.487 55.347H202.35V2.36293C200.972 2.02139 199.594 1.70075 198.202 1.40103V55.347H118.387V0C117.002 0.257901 115.617 0.522776 114.239 0.808558V55.347H92.4059L92.4057 55.3442L88.9605 7.75795C74.1037 12.9155 59.9053 19.8079 46.6587 28.2925C46.1993 28.5852 45.74 28.878 45.2806 29.1847C44.355 29.7841 43.4293 30.3975 42.5176 31.0179V300.755H18.6662C15.6147 300.753 12.6093 301.501 9.91344 302.933C7.21764 304.365 4.91377 306.437 3.20384 308.969C1.4939 311.5 0.430089 314.413 0.105703 317.451C-0.218683 320.49 0.206248 323.562 1.34324 326.398C1.68437 327.256 2.09159 328.086 2.56121 328.88C3.16775 329.916 3.87157 330.891 4.66309 331.794C6.41153 333.789 8.56516 335.388 10.98 336.483C13.3949 337.578 16.0154 338.144 18.6663 338.143H291.011C295.962 338.143 300.71 336.174 304.211 332.668C307.711 329.162 309.678 324.407 309.678 319.449C309.678 314.491 307.711 309.736 304.211 306.23C300.71 302.724 295.962 300.755 291.011 300.755L291.011 300.755ZM218.935 118.343L205.76 300.755H110.132L96.9575 118.343H218.935ZM223.188 59.5006L219.938 104.498H202.35V59.5006H223.188ZM198.202 59.5006V104.498H166.443C165.807 103.248 164.838 102.199 163.644 101.466C162.45 100.733 161.077 100.345 159.676 100.344H155.529C154.128 100.345 152.755 100.733 151.561 101.466C150.366 102.199 149.398 103.248 148.762 104.498H118.387V59.5006H198.202ZM114.239 104.498H95.9552L92.7051 59.5006H114.239V104.498Z" fill="#F2F2F2"/>
<path d="M1.64795 330.899C7.69413 338.074 14.2338 344.817 21.219 351.078L285.4 351.775C292.386 345.514 298.925 338.771 304.971 331.596L1.64795 330.899Z" fill="#3F3D56"/>
<path d="M135.061 263.419V334.907H185.067V263.419C185.068 262.905 184.904 262.404 184.6 261.99C184.296 261.576 183.867 261.271 183.376 261.119C183.145 261.043 182.903 261.005 182.659 261.008H137.476C137.159 261.007 136.846 261.069 136.553 261.19C136.26 261.311 135.994 261.488 135.77 261.712C135.545 261.936 135.367 262.202 135.246 262.495C135.124 262.788 135.061 263.102 135.061 263.419ZM154.576 287.983C154.59 286.574 155.158 285.227 156.158 284.235C157.157 283.243 158.507 282.687 159.915 282.687C161.322 282.687 162.672 283.243 163.672 284.235C164.671 285.227 165.24 286.574 165.253 287.983V296.277C165.246 297.691 164.68 299.043 163.68 300.04C162.679 301.037 161.326 301.596 159.915 301.596C158.504 301.596 157.15 301.037 156.15 300.04C155.149 299.043 154.584 297.691 154.576 296.277V287.983Z" fill="#2F2E41"/>
<path d="M134.908 332.621V339.514C134.909 339.871 135.051 340.214 135.302 340.467C135.554 340.72 135.895 340.864 136.251 340.866H183.877C184.234 340.865 184.576 340.721 184.828 340.468C185.079 340.215 185.221 339.872 185.221 339.514V332.621H134.908Z" fill="#3F3D56"/>
<path d="M56.394 155.714V286.24C56.3954 287.904 57.0557 289.499 58.2302 290.675C59.4046 291.851 60.997 292.512 62.6579 292.514H255.793C257.454 292.512 259.047 291.851 260.221 290.675C261.395 289.499 262.056 287.904 262.057 286.24V155.714C262.053 154.052 261.392 152.46 260.218 151.285C259.044 150.111 257.453 149.45 255.793 149.448H62.6579C60.9985 149.45 59.4075 150.111 58.2335 151.285C57.0594 152.46 56.398 154.052 56.394 155.714Z" fill="#3F3D56"/>
<path d="M60.9248 157.338V284.63C60.9263 285.519 61.2795 286.371 61.907 286.999C62.5345 287.628 63.3851 287.981 64.2725 287.983H254.185C255.073 287.981 255.923 287.628 256.551 286.999C257.178 286.371 257.532 285.519 257.533 284.63V157.338C257.533 156.449 257.181 155.595 256.553 154.965C255.925 154.335 255.074 153.981 254.185 153.979H64.2725C63.384 153.981 62.5326 154.336 61.905 154.965C61.2774 155.595 60.9249 156.449 60.9248 157.338Z" fill="#B49B4A"/>
<path d="M99.6493 342.491C99.8426 342.734 100.088 342.929 100.368 343.063C100.648 343.197 100.954 343.266 101.264 343.264H214.25C214.559 343.264 214.864 343.195 215.143 343.061C215.422 342.928 215.667 342.734 215.862 342.494C216.057 342.254 216.195 341.973 216.268 341.672C216.341 341.371 216.346 341.058 216.282 340.755L214.528 332.412C214.456 332.071 214.299 331.755 214.073 331.491C213.847 331.226 213.558 331.023 213.234 330.899C212.999 330.807 212.749 330.76 212.496 330.76H103.011C102.758 330.76 102.508 330.807 102.273 330.899C101.949 331.023 101.66 331.226 101.434 331.491C101.208 331.755 101.051 332.071 100.979 332.412L99.2248 340.755C99.1624 341.058 99.1681 341.371 99.2415 341.671C99.315 341.971 99.4543 342.251 99.6493 342.491Z" fill="#2F2E41"/>
<path d="M103.011 332.502C102.977 332.502 102.942 332.508 102.91 332.52C102.855 332.539 102.805 332.571 102.765 332.614C102.726 332.657 102.697 332.709 102.682 332.766L100.927 341.114C100.918 341.162 100.92 341.212 100.932 341.26C100.944 341.307 100.967 341.352 100.998 341.39L101.006 341.399C101.036 341.439 101.075 341.47 101.12 341.492C101.165 341.513 101.214 341.523 101.264 341.522H214.25C214.299 341.522 214.348 341.512 214.393 341.491C214.437 341.469 214.477 341.438 214.508 341.4C214.54 341.363 214.564 341.318 214.577 341.27C214.59 341.222 214.591 341.172 214.581 341.123L212.826 332.77C212.813 332.715 212.787 332.665 212.75 332.622C212.713 332.58 212.667 332.547 212.614 332.527C212.577 332.511 212.537 332.503 212.496 332.502H103.011Z" fill="white"/>
<path d="M70.3787 171.514H248.079C248.264 171.51 248.44 171.433 248.569 171.301C248.698 171.169 248.771 170.991 248.771 170.806C248.771 170.621 248.698 170.443 248.569 170.311C248.44 170.179 248.264 170.102 248.079 170.098H70.3787C70.194 170.102 70.0182 170.179 69.889 170.311C69.7598 170.443 69.6875 170.621 69.6875 170.806C69.6875 170.991 69.7598 171.169 69.889 171.301C70.0182 171.433 70.194 171.51 70.3787 171.514Z" fill="#3F3D56"/>
<path d="M235.983 166.485C238.27 166.485 240.124 164.586 240.124 162.245C240.124 159.903 238.27 158.005 235.983 158.005C233.696 158.005 231.842 159.903 231.842 162.245C231.842 164.586 233.696 166.485 235.983 166.485Z" fill="#3F3D56"/>
<path d="M221.677 166.485C223.964 166.485 225.818 164.586 225.818 162.245C225.818 159.903 223.964 158.005 221.677 158.005C219.389 158.005 217.535 159.903 217.535 162.245C217.535 164.586 219.389 166.485 221.677 166.485Z" fill="#3F3D56"/>
<path d="M207.37 166.485C209.657 166.485 211.511 164.586 211.511 162.245C211.511 159.903 209.657 158.005 207.37 158.005C205.083 158.005 203.228 159.903 203.228 162.245C203.228 164.586 205.083 166.485 207.37 166.485Z" fill="#3F3D56"/>
<path d="M78.2349 159.827C78.2344 159.927 78.2537 160.026 78.2915 160.119C78.3294 160.212 78.3851 160.296 78.4556 160.367C78.526 160.439 78.6098 160.495 78.7021 160.534C78.7944 160.573 78.8934 160.593 78.9935 160.593H89.1549C89.3557 160.589 89.5468 160.506 89.6872 160.362C89.8276 160.218 89.9062 160.024 89.9062 159.823C89.9062 159.622 89.8276 159.429 89.6872 159.285C89.5468 159.141 89.3557 159.058 89.1549 159.053H78.9935C78.7906 159.055 78.597 159.138 78.4549 159.283C78.3127 159.428 78.2336 159.624 78.2349 159.827Z" fill="#3F3D56"/>
<path d="M78.2349 162.72C78.2344 162.82 78.2536 162.919 78.2915 163.012C78.3294 163.105 78.3851 163.189 78.4556 163.26C78.526 163.331 78.6098 163.388 78.7021 163.427C78.7944 163.466 78.8934 163.486 78.9935 163.486H89.1549C89.3559 163.482 89.5472 163.399 89.6878 163.255C89.8284 163.111 89.9071 162.917 89.9071 162.716C89.9071 162.515 89.8284 162.321 89.6878 162.177C89.5472 162.033 89.3559 161.95 89.1549 161.946H78.9935C78.7906 161.948 78.597 162.031 78.4549 162.176C78.3127 162.321 78.2336 162.516 78.2349 162.72Z" fill="#3F3D56"/>
<path d="M78.2349 165.605C78.2336 165.808 78.3127 166.004 78.4549 166.149C78.597 166.294 78.7906 166.376 78.9935 166.379H89.1549C89.3557 166.374 89.5468 166.291 89.6872 166.147C89.8276 166.003 89.9062 165.81 89.9062 165.609C89.9062 165.407 89.8276 165.214 89.6872 165.07C89.5468 164.926 89.3557 164.843 89.1549 164.838H78.9935C78.8934 164.839 78.7944 164.859 78.7021 164.898C78.6098 164.937 78.526 164.993 78.4556 165.064C78.3851 165.136 78.3294 165.22 78.2915 165.313C78.2536 165.406 78.2344 165.505 78.2349 165.605Z" fill="#3F3D56"/>
<path d="M221.602 193.117H96.8558C95.217 193.119 93.6459 193.772 92.4871 194.933C91.3283 196.093 90.6765 197.667 90.6746 199.308V260.115C90.6764 261.756 91.3282 263.33 92.487 264.49C93.6458 265.651 95.217 266.304 96.8558 266.306H221.602C223.241 266.304 224.812 265.651 225.971 264.49C227.13 263.33 227.781 261.756 227.783 260.115V199.308C227.781 197.667 227.129 196.093 225.971 194.933C224.812 193.772 223.241 193.119 221.602 193.117ZM226.391 199.308V217.049H182.544V194.511H221.602C222.872 194.513 224.089 195.019 224.987 195.918C225.885 196.817 226.39 198.036 226.391 199.308H226.391ZM137.305 240.98V218.443H181.152V240.98H137.305ZM181.152 242.374V264.912H137.305V242.374H181.152ZM135.913 240.98H92.0665V218.443H135.913V240.98ZM137.305 217.049V194.511H181.152V217.049H137.305ZM182.544 218.443H226.391V240.98H182.544V218.443ZM96.8558 194.511H135.913V217.049H92.0665V199.308C92.068 198.036 92.573 196.817 93.4709 195.918C94.3687 195.019 95.5861 194.513 96.8558 194.511V194.511ZM92.0665 260.115V242.374H135.913V264.912H96.8558C95.586 264.91 94.3686 264.404 93.4708 263.505C92.5729 262.606 92.0679 261.386 92.0665 260.115ZM221.602 264.912H182.544V242.374H226.391V260.115C226.39 261.386 225.885 262.606 224.987 263.505C224.089 264.404 222.872 264.91 221.602 264.912H221.602Z" fill="#3F3D56"/>
<path d="M152.889 208.555C151.782 206.722 150.47 204.764 148.416 204.165C146.037 203.472 143.593 204.849 141.52 206.208C135.32 210.274 129.35 214.679 123.637 219.404L123.643 219.476L136.987 218.554C140.201 218.332 143.526 218.079 146.366 216.557C147.443 215.979 148.494 215.207 149.715 215.153C151.233 215.087 152.556 216.148 153.595 217.257C159.745 223.815 161.525 233.845 168.425 239.608C164.074 228.862 158.879 218.479 152.889 208.555Z" fill="white"/>
<path d="M190.692 264.186C190.012 263.326 189.734 263.125 189.064 262.257C183.601 255.181 178.467 247.867 173.661 240.314C170.397 235.184 167.294 229.955 164.353 224.628C162.953 222.096 161.592 219.543 160.269 216.971C159.242 214.977 158.238 212.97 157.257 210.952C156.976 210.376 156.704 209.796 156.433 209.216C155.793 207.851 155.166 206.479 154.493 205.133C153.797 203.516 152.731 202.087 151.382 200.958C150.74 200.47 149.973 200.174 149.171 200.106C148.04 200.113 146.932 200.43 145.97 201.025C138.682 204.862 131.88 209.559 125.708 215.018C119.528 220.454 114.003 226.596 109.247 233.318C109.102 233.526 108.758 233.327 108.904 233.118C109.483 232.299 110.072 231.489 110.674 230.687C118.149 220.73 127.315 212.168 137.752 205.391C139.508 204.252 141.297 203.165 143.119 202.133C144.038 201.612 144.96 201.098 145.898 200.615C146.797 200.087 147.806 199.774 148.845 199.701C152.42 199.645 154.272 203.7 155.543 206.429C155.943 207.288 156.347 208.144 156.757 208.997C158.304 212.237 159.91 215.448 161.576 218.629C162.604 220.593 163.655 222.545 164.728 224.487C168.068 230.531 171.618 236.453 175.377 242.253C180.358 249.935 185.299 256.721 190.973 263.905C191.129 264.104 190.85 264.388 190.692 264.186Z" fill="white"/>
<path d="M125.355 213.015C125.147 212.783 124.941 212.551 124.732 212.319C123.083 210.493 121.314 208.688 119.05 207.641C117.97 207.126 116.792 206.853 115.596 206.84C114.362 206.873 113.146 207.139 112.01 207.623C111.47 207.839 110.942 208.084 110.422 208.345C109.828 208.645 109.244 208.964 108.664 209.286C107.573 209.89 106.497 210.521 105.435 211.178C103.322 212.486 101.275 213.894 99.2938 215.402C98.2669 216.184 97.2613 216.991 96.2768 217.824C95.3611 218.598 94.464 219.393 93.5854 220.209C93.3974 220.382 93.1169 220.101 93.3048 219.928C93.5364 219.712 93.7706 219.497 94.0048 219.285C94.6664 218.686 95.3386 218.098 96.0214 217.522C97.2666 216.47 98.5439 215.458 99.8535 214.487C101.89 212.977 103.997 211.568 106.173 210.263C107.261 209.611 108.364 208.986 109.481 208.389C109.819 208.209 110.16 208.032 110.506 207.865C111.289 207.469 112.103 207.138 112.94 206.873C114.126 206.489 115.38 206.365 116.618 206.511C117.812 206.685 118.964 207.084 120.01 207.686C122.233 208.931 123.958 210.855 125.635 212.733C125.805 212.924 125.526 213.206 125.355 213.015Z" fill="white"/>
<path d="M170.904 231.939L176.231 229.988L178.875 229.019C179.73 228.675 180.602 228.374 181.487 228.118C182.26 227.897 183.082 227.908 183.85 228.149C184.535 228.402 185.162 228.792 185.693 229.293C186.237 229.794 186.742 230.334 187.205 230.91C187.781 231.603 188.349 232.303 188.918 233.001C191.27 235.882 193.607 238.775 195.928 241.681C198.249 244.587 200.555 247.505 202.845 250.435C205.141 253.373 207.421 256.322 209.685 259.284C209.962 259.647 210.239 260.01 210.516 260.374C210.669 260.574 211.014 260.376 210.859 260.173C208.578 257.181 206.281 254.201 203.969 251.234C201.65 248.26 199.316 245.298 196.966 242.349C194.615 239.399 192.249 236.463 189.867 233.539C189.274 232.811 188.679 232.084 188.084 231.357C187.582 230.744 187.085 230.124 186.534 229.553C186.065 228.987 185.489 228.52 184.84 228.177C184.19 227.834 183.479 227.623 182.747 227.555C181.862 227.586 180.989 227.779 180.172 228.123C179.281 228.445 178.393 228.774 177.503 229.1L172.139 231.065L170.798 231.556C170.56 231.643 170.663 232.027 170.904 231.939V231.939Z" fill="white"/>
<path d="M118.349 209.939C116.98 209.264 115.456 208.965 113.934 209.074C112.412 209.183 110.946 209.696 109.687 210.56C114.432 211.38 119.125 212.477 123.742 213.845C121.825 212.72 120.325 210.957 118.349 209.939Z" fill="white"/>
<path d="M109.661 210.555L109.14 210.979C109.316 210.831 109.499 210.691 109.687 210.56L109.661 210.555Z" fill="white"/>
<path d="M185.493 231.959C185.027 231.27 184.377 230.727 183.617 230.39L182.885 230.419C188.459 240.284 195.988 248.904 205.008 255.749L185.493 231.959Z" fill="white"/>
<path d="M182.067 221.158C184.396 221.158 186.284 219.267 186.284 216.935C186.284 214.602 184.396 212.711 182.067 212.711C179.738 212.711 177.85 214.602 177.85 216.935C177.85 219.267 179.738 221.158 182.067 221.158Z" fill="white"/>
<path d="M243.261 263.866C244.092 263.865 244.888 263.534 245.475 262.946C246.062 262.358 246.392 261.561 246.393 260.73V195.906C246.393 195.074 246.063 194.276 245.476 193.688C244.889 193.1 244.092 192.769 243.261 192.769C242.431 192.769 241.634 193.1 241.047 193.688C240.46 194.276 240.13 195.074 240.13 195.906V260.73C240.131 261.561 240.461 262.358 241.048 262.946C241.635 263.534 242.431 263.865 243.261 263.866Z" fill="#3F3D56"/>
<path d="M243.261 263.866C244.092 263.865 244.888 263.534 245.475 262.946C246.062 262.358 246.392 261.561 246.393 260.729V246.984C246.033 246.491 245.561 246.091 245.017 245.815C244.473 245.539 243.871 245.395 243.261 245.395C242.651 245.395 242.05 245.539 241.506 245.815C240.962 246.091 240.49 246.491 240.13 246.984V260.729C240.131 261.561 240.461 262.358 241.048 262.946C241.635 263.534 242.431 263.865 243.261 263.866Z" fill="#2F2E41"/>
<path d="M243.261 250.622C244.154 250.621 245.01 250.265 245.642 249.633C246.273 249.001 246.628 248.143 246.63 247.249V232.466C246.242 231.936 245.735 231.506 245.149 231.209C244.564 230.912 243.917 230.757 243.261 230.757C242.605 230.757 241.959 230.912 241.374 231.209C240.788 231.506 240.281 231.936 239.893 232.466V247.249C239.895 248.143 240.25 249.001 240.881 249.633C241.513 250.265 242.369 250.621 243.261 250.622Z" fill="#B49B4A"/>
<path d="M243.261 247.935C243.913 247.934 244.537 247.674 244.998 247.213C245.458 246.752 245.717 246.126 245.718 245.474V234.692C245.435 234.305 245.065 233.991 244.639 233.775C244.212 233.558 243.74 233.445 243.261 233.445C242.783 233.445 242.311 233.558 241.884 233.775C241.458 233.991 241.088 234.305 240.805 234.692V245.474C240.806 246.126 241.065 246.752 241.525 247.213C241.986 247.674 242.61 247.934 243.261 247.935Z" fill="#3F3D56"/>
<path d="M146.643 336.691C146.093 336.198 145.761 335.506 145.719 334.768C145.678 334.03 145.931 333.306 146.422 332.754L173.785 302.09C174.029 301.817 174.324 301.595 174.653 301.436C174.983 301.277 175.34 301.185 175.705 301.165C176.07 301.144 176.435 301.196 176.781 301.317C177.126 301.438 177.444 301.625 177.716 301.869C177.989 302.113 178.211 302.409 178.369 302.739C178.528 303.069 178.62 303.426 178.641 303.792C178.661 304.158 178.609 304.524 178.489 304.869C178.368 305.215 178.18 305.533 177.937 305.806L150.574 336.47C150.081 337.02 149.391 337.353 148.654 337.394C147.917 337.436 147.194 337.183 146.643 336.691Z" fill="#B49B4A"/>
<path d="M373.638 387.177C373.638 392.258 372.441 396.148 372.588 399.257C364.379 402.845 355.938 405.877 347.323 408.332C346.349 408.611 345.375 408.876 344.393 409.14C339.083 392.858 333.766 377.948 331.671 376.366C326.875 372.762 324.474 387.672 324.474 384.068C324.474 380.465 326.875 380.465 320.883 375.662C314.884 370.86 318.482 349.245 318.482 349.245L310.088 327.63L319.477 293.155L331.671 248.37H343.662C343.662 248.37 344.017 248.628 344.609 249.109C347.609 251.563 356.656 259.76 355.654 268.786C355.355 271.477 356.023 279.298 357.185 289.711C360.721 321.154 368.843 355.337 368.843 364.356C368.843 376.366 373.638 379.97 373.638 387.177Z" fill="#E6E6E6"/>
<path d="M363.583 289.594C363.569 289.559 363.562 289.531 363.548 289.503C363.279 288.778 362.966 288.07 362.609 287.384C360.583 283.571 362.727 277.716 360.444 271.248C356.755 260.764 352.259 254.582 345.668 249.04C345.474 248.873 345.279 248.713 345.077 248.545L345.07 248.539C340.671 244.921 335.368 241.54 328.784 237.33C327.413 236.452 325.979 235.539 324.49 234.577C322.569 233.343 322.673 229.231 322.784 224.881C322.91 220.051 323.042 215.046 320.676 211.923L320.523 211.721L320.279 211.659C312.166 210.051 303.891 209.413 295.627 209.756H295.62C292.112 209.886 288.628 210.398 285.229 211.282C284.979 211.352 284.728 211.422 284.485 211.505C284.297 211.554 284.109 211.617 283.921 211.68L283.768 211.735L283.649 211.847C281.36 214.14 280.831 218.253 280.58 222.539V222.546C280.531 223.327 280.49 224.108 280.455 224.888C280.26 229.057 280.079 232.995 278.548 234.702C275.132 238.578 271.004 241.758 266.389 244.071C259.199 247.625 253.513 247.514 253.43 247.514L252.768 247.493L252.706 248.148C247.931 257.258 248.112 280.762 247.966 305.932C247.959 307.333 247.95 308.741 247.938 310.156C247.855 321.88 247.632 333.806 246.755 344.673C246.372 349.343 245.878 353.811 245.217 357.986C242.002 378.319 227.435 361.437 220.468 374.966C220.697 376.296 221.082 377.595 221.616 378.834C222.417 379.308 223.238 379.768 224.052 380.229C227.664 382.243 231.344 384.123 235.091 385.867C235.299 385.965 235.508 386.063 235.717 386.153C242.589 389.338 249.673 392.044 256.917 394.253C258.329 394.685 259.742 395.096 261.169 395.487C273.79 398.976 286.785 400.925 299.873 401.293C299.926 401.287 299.979 401.284 300.033 401.286C315.511 400.857 330.887 398.637 345.856 394.671C346.065 394.615 346.274 394.559 346.483 394.504C347.464 394.239 348.438 393.974 349.413 393.695C358.028 391.24 366.468 388.208 374.677 384.62C374.685 384.926 374.716 385.231 374.767 385.533C374.775 385.631 374.788 385.729 374.809 385.826C374.823 385.714 374.837 385.603 374.844 385.491C374.886 385.163 374.92 384.829 374.955 384.494C379.215 342.896 370.369 307.577 363.583 289.594Z" fill="#3F3D56"/>
<path d="M267.931 187.641C272.179 195.42 278.946 201.518 287.117 204.932C295.288 208.345 304.376 208.87 312.884 206.42C321.393 203.969 328.814 198.69 333.927 191.451C339.039 184.212 341.537 175.445 341.01 166.594C340.483 157.743 336.962 149.336 331.027 142.757C325.091 136.178 317.096 131.82 308.357 130.4C299.618 128.979 290.656 130.582 282.949 134.944C275.241 139.306 269.246 146.167 265.951 154.397C265.773 154.843 265.612 155.29 265.452 155.755C263.59 160.943 262.847 166.467 263.275 171.964C263.702 177.461 265.289 182.804 267.931 187.641Z" fill="#FFB6B6"/>
<path d="M262.331 155.755C264.007 151.056 263.276 153.504 264.97 148.824C263.864 152.968 265.612 155.29 265.452 155.755H311.845V128.745C298.253 123.35 284.965 118.76 276.939 128.745C269.786 128.745 262.927 131.591 257.869 136.656C252.812 141.722 249.97 148.591 249.97 155.755H262.331Z" fill="#2F2E41"/>
<path d="M278.776 230.834C278.812 230.334 278.865 229.816 278.936 229.316C279.436 225.636 280.684 222.099 281.951 218.598C283.288 214.829 284.644 211.042 286 207.272C284.254 214.114 284.786 221.34 287.516 227.851C295.346 221.742 290.405 207.773 300.643 207.773C325.258 207.773 350.586 187.784 350.586 163.114C350.586 138.463 340.026 120.028 315.412 120.028C290.78 120.028 270.803 131.317 270.321 155.969C300.643 163.114 273.05 228.333 278.776 230.834Z" fill="#2F2E41"/>
<path d="M347.51 159.336C363.271 159.336 376.048 146.54 376.048 130.754C376.048 114.969 363.271 102.173 347.51 102.173C331.749 102.173 318.971 114.969 318.971 130.754C318.971 146.54 331.749 159.336 347.51 159.336Z" fill="#2F2E41"/>
<path d="M392 294.668C391.903 296.139 391.817 297.705 391.743 299.366C390.267 330.655 391.541 372.777 381.595 395.633C379.368 396.852 377.118 398.019 374.844 399.132C374.753 399.174 374.67 399.215 374.593 399.257C373.981 399.557 373.368 399.85 372.756 400.129C372.734 400.148 372.708 400.162 372.679 400.17C365.954 403.353 359.023 406.08 351.932 408.333C351.062 408.611 350.185 408.876 349.308 409.141C349.12 409.197 348.933 409.253 348.745 409.308C335.387 413.265 321.577 415.488 307.654 415.923C306.93 415.944 306.22 415.958 305.531 415.972C305.287 415.979 305.051 415.986 304.814 415.986C304.035 415.993 303.262 416 302.483 416C300.91 416 299.344 415.977 297.785 415.93C284.697 415.563 271.702 413.613 259.081 410.124C257.654 409.734 256.242 409.322 254.829 408.89C247.585 406.682 240.501 403.975 233.629 400.791C233.42 400.7 233.212 400.603 233.003 400.505C229.258 398.762 225.579 396.883 221.964 394.866C221.15 394.406 220.329 393.946 219.528 393.472C218.994 392.232 218.609 390.934 218.38 389.603C216.8 381.999 215.533 387.129 214.629 371.306C213.8 356.801 213.272 342.254 213.077 333.939C213.014 331.722 212.993 329.945 212.986 328.732C213.724 323.448 225.583 317.454 242.879 311.759C244.514 311.222 246.205 310.686 247.938 310.156C252.615 308.713 257.613 307.298 262.833 305.932C276.126 302.447 290.888 299.247 305.538 296.606C312.769 295.309 319.973 294.145 326.967 293.155C339.238 291.413 350.847 290.207 360.778 289.712C361.732 289.663 362.664 289.621 363.583 289.593C364.571 289.552 365.539 289.524 366.485 289.503C380.795 289.189 390.566 290.681 392 294.668Z" fill="#2F2E41"/>
<path opacity="0.2" d="M392 294.668C391.903 296.139 391.817 297.705 391.742 299.366C380.899 287.67 264.085 339.919 214.629 371.306C213.8 356.801 213.271 342.254 213.077 333.939C213.014 331.722 212.993 329.945 212.986 328.732C213.724 323.448 225.583 317.454 242.879 311.759C244.514 311.222 246.205 310.686 247.938 310.156C252.615 308.713 257.613 307.298 262.832 305.932C276.126 302.447 290.887 299.247 305.538 296.606C312.769 295.309 319.973 294.145 326.967 293.155C339.237 291.413 350.847 290.207 360.778 289.712C361.732 289.663 362.664 289.621 363.583 289.593C364.571 289.552 365.539 289.524 366.485 289.503C380.795 289.189 390.566 290.681 392 294.668Z" fill="black"/>
<path d="M154.439 330.922C155.535 332.305 156.919 333.431 158.496 334.22C160.073 335.009 161.803 335.443 163.565 335.49C165.328 335.536 167.078 335.196 168.695 334.492C170.311 333.788 171.754 332.737 172.921 331.414L212.556 347.717L208.279 325.833L171.297 313.707C168.948 311.89 166.015 311 163.054 311.204C160.094 311.408 157.311 312.693 155.233 314.816C153.155 316.938 151.926 319.749 151.78 322.718C151.634 325.686 152.58 328.606 154.439 330.922Z" fill="#FFB6B6"/>
<path d="M286.283 239.792L286.065 239.769L262.952 241.45C260.018 241.663 257.162 242.499 254.575 243.902C251.988 245.305 249.728 247.243 247.946 249.588C247.118 250.674 246.401 251.841 245.806 253.071L245.8 253.075C243.808 257.158 243.207 261.783 244.091 266.24L254.972 321.098L228.79 318.716L219.233 320.352L207.955 315.795L184.812 316.189L184.276 317.966L179.421 334.083L179.04 335.35L214.379 357.652L224.624 354.531L229.451 358.244L229.683 358.25L239.254 358.44L280.072 359.241L291.229 339.445L292.973 336.341C305.931 307.268 309.128 286.973 308.114 272.991C307.582 265.603 305.877 259.988 303.812 255.756C297.428 242.678 286.732 239.903 286.283 239.792Z" fill="#3F3D56"/>
<path d="M351.119 156.13C345.707 154.911 340.69 152.344 336.532 148.666C332.374 144.989 329.211 140.319 327.335 135.091C325.661 130.227 325.029 124.887 322.218 120.558C326.5 114.669 329.933 108.207 332.418 101.361C333.379 98.7106 335.631 93.8992 331.814 92.4412C328.772 91.2796 325.316 94.0831 323.513 96.2953C322.143 97.9717 321.161 99.9309 320.637 102.032C320.015 99.2826 319.393 96.5327 318.771 93.7829C318.692 93.519 318.514 93.2959 318.275 93.1598C318.036 93.0238 317.754 92.9854 317.487 93.0526C312.391 93.9227 308.695 98.6482 308.054 103.626C307.703 106.188 308.285 108.791 309.693 110.959C311.33 113.454 313.727 115.242 316.009 117.1C318.434 119.077 320.491 121.182 321.795 124.073C323.151 127.077 323.761 130.365 324.66 133.519C326.367 139.578 329.674 145.063 334.233 149.398C338.792 153.732 344.434 156.754 350.564 158.146C351.874 158.433 352.433 156.417 351.119 156.13ZM322.343 106.142C322.179 103.515 322.872 100.906 324.317 98.7081C325.041 97.5937 325.947 96.61 326.999 95.7988C327.996 95.0361 329.466 94.0259 330.785 94.3061C332.496 94.6695 331.808 96.5818 331.444 97.735C330.965 99.2564 330.438 100.762 329.863 102.251C328.744 105.142 327.445 107.961 325.973 110.69C325.209 112.11 324.392 113.501 323.539 114.868C322.952 112.269 322.364 109.669 321.776 107.07C321.961 107.002 322.118 106.873 322.221 106.705C322.324 106.536 322.367 106.338 322.343 106.142ZM310.149 106.558C309.808 104.183 310.303 101.762 311.55 99.713C312.797 97.6636 314.717 96.1133 316.982 95.3282C318.639 102.657 320.296 109.985 321.953 117.313C321.611 117.818 321.258 118.316 320.905 118.813C320.812 118.706 320.727 118.596 320.631 118.491C317.155 114.702 311.094 112.12 310.149 106.558Z" fill="#B49B4A"/>
</g>
<defs>
<clipPath id="clip0_233_248">
<rect width="392" height="416" fill="white"/>
</clipPath>
</defs>
</svg>
