<svg width="247" height="133" viewBox="0 0 247 133" fill="none" xmlns="http://www.w3.org/2000/svg">
<g clip-path="url(#clip0_233_299)">
<rect width="246.053" height="132.165" transform="translate(-0.00012207 0.255371)" fill="white"/>
<path d="M53.1858 132.135H52.6318C52.6318 125.242 49.8884 118.632 45.0052 113.758C40.1219 108.884 33.4988 106.146 26.5929 106.146C19.6869 106.146 13.0638 108.884 8.18053 113.758C3.29728 118.632 0.553898 125.242 0.553898 132.135H-0.000122097C-0.000121985 125.096 2.80163 118.345 7.78878 113.367C12.7759 108.39 19.54 105.593 26.5929 105.593C33.6458 105.593 40.4098 108.39 45.3969 113.367C50.3841 118.345 53.1858 125.096 53.1858 132.135Z" fill="#3F3D56"/>
<path d="M245.985 132.135H245.431C245.431 125.242 242.687 118.632 237.804 113.758C232.921 108.884 226.298 106.146 219.392 106.146C212.486 106.146 205.863 108.884 200.98 113.758C196.096 118.632 193.353 125.242 193.353 132.135H192.799C192.799 125.096 195.601 118.345 200.588 113.367C205.575 108.39 212.339 105.593 219.392 105.593C226.445 105.593 233.209 108.39 238.196 113.367C243.183 118.345 245.985 125.096 245.985 132.135Z" fill="#3F3D56"/>
<path d="M180.888 68.822H180.334C180.334 42.6005 158.96 21.2678 132.688 21.2678C106.416 21.2678 85.0421 42.6005 85.0421 68.822H84.488C84.488 42.2956 106.11 20.7148 132.688 20.7148C159.265 20.7148 180.888 42.2956 180.888 68.822Z" fill="#3F3D56"/>
<path d="M40.3048 22.0971C46.3479 22.0971 51.2467 17.2077 51.2467 11.1762C51.2467 5.14481 46.3479 0.255371 40.3048 0.255371C34.2618 0.255371 29.3629 5.14481 29.3629 11.1762C29.3629 17.2077 34.2618 22.0971 40.3048 22.0971Z" fill="#FF6584"/>
<path d="M42.6293 86.346L61.4275 64.002H98.3859L120.972 85.9587L120.515 86.2515H120.678L120.678 131.921H42.655L42.655 86.2515L42.6293 86.346Z" fill="#3F3D56"/>
<path d="M53.9391 76.6318H58.2003L58.2003 61.9098H53.9391L53.9391 76.6318Z" fill="#3F3D56"/>
<path d="M61.1344 63.709L84.3066 90.824L84.3066 131.921H42.655L42.655 85.6657L61.1344 63.709Z" fill="#D0B049"/>
<path d="M78.9516 96.2051H70.4453L70.4453 104.886H78.9516L78.9516 96.2051Z" fill="#3F3D56"/>
<path d="M78.9516 108.017H70.4453L70.4453 116.698H78.9516L78.9516 108.017Z" fill="#3F3D56"/>
<path d="M78.9516 96.2051H70.4453L70.4453 104.886H78.9516L78.9516 96.2051Z" fill="white"/>
<path d="M78.9516 108.017H70.4453L70.4453 116.698H78.9516L78.9516 108.017Z" fill="white"/>
<path d="M67.1873 96.2051H58.681L58.681 104.886H67.1873L67.1873 96.2051Z" fill="#3F3D56"/>
<path d="M67.1873 108.017H58.681L58.681 116.698H67.1873L67.1873 108.017Z" fill="#3F3D56"/>
<path d="M67.1873 96.2051H58.681L58.681 104.886H67.1873L67.1873 96.2051Z" fill="white"/>
<path d="M67.1873 108.017H58.681L58.681 116.698H67.1873L67.1873 108.017Z" fill="white"/>
<path d="M55.4232 96.2051H46.9169L46.9169 104.886H55.4232L55.4232 96.2051Z" fill="#3F3D56"/>
<path d="M55.4232 108.017H46.9169L46.9169 116.698H55.4232L55.4232 108.017Z" fill="#3F3D56"/>
<path d="M55.4232 96.2051H46.9169L46.9169 104.886H55.4232L55.4232 96.2051Z" fill="white"/>
<path d="M55.4232 108.017H46.9169L46.9169 116.698H55.4232L55.4232 108.017Z" fill="white"/>
<path d="M138.228 11.3145H134.35L134.35 20.9912H138.228L138.228 11.3145Z" fill="#D0B049"/>
<path d="M137.951 20.1616H104.987L104.987 132.135H137.951L137.951 20.1616Z" fill="#D0B049"/>
<path d="M151.247 20.1616H137.951L137.951 132.135H151.247L151.247 20.1616Z" fill="#3F3D56"/>
<path d="M115.929 29.8384H110.943L110.943 34.815H115.929L115.929 29.8384Z" fill="white"/>
<path d="M123.962 29.8384H118.976L118.976 34.815H123.962L123.962 29.8384Z" fill="white"/>
<path d="M131.995 29.8384H127.009L127.009 34.815H131.995L131.995 29.8384Z" fill="white"/>
<path d="M116.067 41.1738H111.081L111.081 46.1504H116.067L116.067 41.1738Z" fill="white"/>
<path d="M124.1 41.1738H119.114L119.114 46.1504H124.1L124.1 41.1738Z" fill="white"/>
<path d="M132.134 41.1738H127.148L127.148 46.1504H132.134L132.134 41.1738Z" fill="white"/>
<path d="M116.206 52.5098H111.219L111.219 57.4864H116.206L116.206 52.5098Z" fill="white"/>
<path d="M124.239 52.5098H119.253L119.253 57.4864H124.239L124.239 52.5098Z" fill="white"/>
<path d="M132.272 52.5098H127.286L127.286 57.4864H132.272L132.272 52.5098Z" fill="white"/>
<path d="M116.344 63.8452H111.358L111.358 68.8218H116.344L116.344 63.8452Z" fill="white"/>
<path d="M124.377 63.8452H119.391L119.391 68.8218H124.377L124.377 63.8452Z" fill="white"/>
<path d="M132.411 63.8452H127.425L127.425 68.8218H132.411L132.411 63.8452Z" fill="white"/>
<path d="M116.483 75.1807H111.496L111.496 80.1573H116.483L116.483 75.1807Z" fill="white"/>
<path d="M124.516 75.1807H119.53L119.53 80.1573H124.516L124.516 75.1807Z" fill="white"/>
<path d="M132.549 75.1807H127.563L127.563 80.1573H132.549L132.549 75.1807Z" fill="white"/>
<path d="M116.621 86.5166H111.635L111.635 91.4932H116.621L116.621 86.5166Z" fill="white"/>
<path d="M124.654 86.5166H119.668L119.668 91.4932H124.654L124.654 86.5166Z" fill="white"/>
<path d="M132.688 86.5166H127.702L127.702 91.4932H132.688L132.688 86.5166Z" fill="white"/>
<path d="M116.76 97.8521H111.773L111.773 102.829H116.76L116.76 97.8521Z" fill="white"/>
<path d="M124.793 97.8521H119.807L119.807 102.829H124.793L124.793 97.8521Z" fill="white"/>
<path d="M132.826 97.8521H127.84L127.84 102.829H132.826L132.826 97.8521Z" fill="white"/>
<path d="M116.898 109.188H111.912L111.912 114.164H116.898L116.898 109.188Z" fill="white"/>
<path d="M124.932 109.188H119.945L119.945 114.164H124.932L124.932 109.188Z" fill="white"/>
<path d="M124.932 122.458H119.945L119.945 131.859H124.932L124.932 122.458Z" fill="white"/>
<path d="M132.965 109.188H127.979L127.979 114.164H132.965L132.965 109.188Z" fill="white"/>
<path d="M140.167 11.3145H137.951L137.951 20.7147H140.167L140.167 11.3145Z" fill="#3F3D56"/>
<path d="M179.78 60.5273H175.901L175.901 66.2625H179.78L179.78 60.5273Z" fill="#D0B049"/>
<path d="M179.502 65.771H146.538L146.538 132.135H179.502L179.502 65.771Z" fill="#D0B049"/>
<path d="M192.799 65.771H179.502L179.502 132.135H192.799L192.799 65.771Z" fill="#3F3D56"/>
<path d="M158.034 75.1807H153.048L153.048 80.1573H158.034L158.034 75.1807Z" fill="white"/>
<path d="M166.067 75.1807H161.081L161.081 80.1573H166.067L166.067 75.1807Z" fill="white"/>
<path d="M174.101 75.1807H169.115L169.115 80.1573H174.101L174.101 75.1807Z" fill="white"/>
<path d="M158.173 86.5166H153.187L153.187 91.4932H158.173L158.173 86.5166Z" fill="white"/>
<path d="M166.206 86.5166H161.22L161.22 91.4932H166.206L166.206 86.5166Z" fill="white"/>
<path d="M174.239 86.5166H169.253L169.253 91.4932H174.239L174.239 86.5166Z" fill="white"/>
<path d="M158.311 97.8521H153.325L153.325 102.829H158.311L158.311 97.8521Z" fill="white"/>
<path d="M166.344 97.8521H161.358L161.358 102.829H166.344L166.344 97.8521Z" fill="white"/>
<path d="M174.378 97.8521H169.392L169.392 102.829H174.378L174.378 97.8521Z" fill="white"/>
<path d="M158.45 109.188H153.464L153.464 114.164H158.45L158.45 109.188Z" fill="white"/>
<path d="M166.483 109.188H161.497L161.497 114.164H166.483L166.483 109.188Z" fill="white"/>
<path d="M166.483 122.458H161.497L161.497 131.859H166.483L166.483 122.458Z" fill="white"/>
<path d="M174.516 109.188H169.53L169.53 114.164H174.516L174.516 109.188Z" fill="white"/>
<path d="M181.719 60.5273H179.502L179.502 66.0987H181.719L181.719 60.5273Z" fill="#3F3D56"/>
<path d="M246.053 131.801H0.0675049L0.0675049 132.421H246.053L246.053 131.801Z" fill="#3F3D56"/>
<path d="M202.954 119.163C206.938 119.163 210.168 115.94 210.168 111.964C210.168 107.988 206.938 104.764 202.954 104.764C198.97 104.764 195.741 107.988 195.741 111.964C195.741 115.94 198.97 119.163 202.954 119.163Z" fill="#D0B049"/>
<path opacity="0.2" d="M208.32 107.155C208.993 108.726 209.084 110.484 208.577 112.116C208.071 113.748 206.999 115.147 205.554 116.063C204.109 116.979 202.385 117.352 200.69 117.116C198.995 116.88 197.439 116.05 196.3 114.775C196.711 115.734 197.326 116.594 198.103 117.292C198.88 117.991 199.799 118.513 200.798 118.822C201.797 119.131 202.851 119.22 203.888 119.082C204.925 118.944 205.919 118.582 206.801 118.023C207.684 117.463 208.434 116.718 209 115.841C209.566 114.963 209.934 113.973 210.079 112.939C210.223 111.905 210.14 110.853 209.837 109.854C209.533 108.855 209.016 107.934 208.32 107.155Z" fill="black"/>
<path d="M202.974 111.964H202.994L203.35 132.376H202.597L202.974 111.964Z" fill="#3F3D56"/>
<path d="M204.287 123.082L204.121 122.767L202.929 123.394L203.095 123.709L204.287 123.082Z" fill="#3F3D56"/>
<path d="M224.162 112.284C230.22 112.284 235.131 107.382 235.131 101.336C235.131 95.2889 230.22 90.3872 224.162 90.3872C218.103 90.3872 213.192 95.2889 213.192 101.336C213.192 107.382 218.103 112.284 224.162 112.284Z" fill="#D0B049"/>
<path opacity="0.2" d="M232.321 94.0229C233.345 96.4118 233.483 99.0859 232.713 101.568C231.943 104.049 230.313 106.176 228.116 107.569C225.919 108.962 223.297 109.53 220.719 109.171C218.141 108.812 215.775 107.55 214.043 105.61C214.668 107.07 215.604 108.376 216.785 109.439C217.966 110.502 219.364 111.296 220.883 111.765C222.402 112.235 224.006 112.37 225.582 112.16C227.158 111.95 228.67 111.4 230.012 110.549C231.355 109.698 232.496 108.566 233.356 107.231C234.217 105.897 234.776 104.391 234.996 102.819C235.215 101.247 235.09 99.6461 234.628 98.1273C234.166 96.6085 233.379 95.208 232.321 94.0229Z" fill="black"/>
<path d="M224.192 101.335H224.222L224.764 132.376H223.619L224.192 101.335Z" fill="#3F3D56"/>
<path d="M226.189 118.243L225.936 117.764L224.123 118.716L224.376 119.196L226.189 118.243Z" fill="#3F3D56"/>
<path d="M7.38489 118.887C11.3688 118.887 14.5984 115.663 14.5984 111.687C14.5984 107.711 11.3688 104.487 7.38489 104.487C3.40098 104.487 0.171387 107.711 0.171387 111.687C0.171387 115.663 3.40098 118.887 7.38489 118.887Z" fill="#D0B049"/>
<path opacity="0.2" d="M12.7508 106.878C13.4236 108.449 13.5149 110.208 13.0083 111.84C12.5017 113.472 11.4302 114.871 9.98528 115.787C8.54038 116.703 6.81623 117.076 5.12091 116.84C3.4256 116.604 1.8696 115.774 0.730957 114.498C1.14199 115.458 1.75717 116.317 2.53389 117.016C3.3106 117.715 4.23027 118.237 5.22918 118.546C6.22809 118.855 7.28236 118.943 8.31894 118.805C9.35552 118.667 10.3496 118.306 11.2324 117.746C12.1151 117.187 12.8654 116.442 13.4313 115.564C13.9972 114.687 14.3651 113.697 14.5095 112.663C14.6539 111.629 14.5714 110.576 14.2678 109.577C13.9641 108.579 13.4465 107.658 12.7508 106.878H12.7508Z" fill="black"/>
<path d="M7.40466 111.687H7.4246L7.78111 132.099H7.0282L7.40466 111.687Z" fill="#3F3D56"/>
<path d="M8.71818 122.805L8.552 122.49L7.35958 123.117L7.52576 123.432L8.71818 122.805Z" fill="#3F3D56"/>
<path d="M167.983 10.5778L170.533 8.54218C168.552 8.32404 167.738 9.40237 167.404 10.2559C165.857 9.61446 164.172 10.4551 164.172 10.4551L169.274 12.3038C169.017 11.6176 168.569 11.0189 167.983 10.5778Z" fill="#3F3D56"/>
<path d="M40.0039 20.8073L42.554 18.7717C40.5729 18.5535 39.759 19.6319 39.4258 20.4854C37.8782 19.844 36.1934 20.6846 36.1934 20.6846L41.2956 22.5333C41.0382 21.8471 40.5901 21.2484 40.0039 20.8073Z" fill="#3F3D56"/>
<path d="M206.764 31.3137L209.314 29.278C207.333 29.0599 206.519 30.1382 206.186 30.9917C204.638 30.3503 202.953 31.1909 202.953 31.1909L208.056 33.0396C207.798 32.3535 207.35 31.7547 206.764 31.3137Z" fill="#3F3D56"/>
<path d="M61.0566 15.278L63.6067 13.2424C61.6257 13.0242 60.8117 14.1026 60.4786 14.9561C58.9309 14.3147 57.2461 15.1553 57.2461 15.1553L62.3483 17.004C62.0909 16.3178 61.6428 15.7191 61.0566 15.278Z" fill="#3F3D56"/>
<path d="M65.7658 37.3962L68.3158 35.3605C66.3348 35.1424 65.5208 36.2207 65.1877 37.0743C63.64 36.4328 61.9552 37.2734 61.9552 37.2734L67.0574 39.1222C66.8 38.436 66.352 37.8373 65.7658 37.3962Z" fill="#3F3D56"/>
<path d="M164.935 49.0085L167.485 46.9728C165.504 46.7547 164.69 47.833 164.357 48.6866C162.81 48.0451 161.125 48.8857 161.125 48.8857L166.227 50.7345C165.97 50.0483 165.522 49.4496 164.935 49.0085Z" fill="#3F3D56"/>
<path d="M29.363 126.329H12.1884L12.1884 126.882H14.8668L14.8668 132.135H15.4208L15.4208 126.882H25.8535L25.8535 132.135H26.4076L26.4076 126.882H29.363L29.363 126.329Z" fill="#3F3D56"/>
<path d="M46.8146 128.541C46.1368 128.541 45.4708 128.719 44.884 129.058C44.2881 128.52 43.5485 128.167 42.755 128.04C41.9616 127.914 41.1484 128.02 40.4142 128.346C39.68 128.671 39.0564 129.203 38.619 129.876C38.1816 130.548 37.9493 131.333 37.9503 132.135H50.6788C50.6094 131.16 50.1722 130.246 49.4552 129.58C48.7382 128.913 47.7947 128.542 46.8146 128.541Z" fill="#3F3D56"/>
<path d="M112.466 128.541C111.788 128.541 111.122 128.719 110.535 129.058C109.939 128.52 109.2 128.167 108.406 128.04C107.613 127.914 106.8 128.02 106.066 128.346C105.331 128.671 104.708 129.203 104.27 129.876C103.833 130.548 103.601 131.333 103.602 132.135H116.33C116.261 131.16 115.824 130.246 115.107 129.58C114.39 128.913 113.446 128.542 112.466 128.541Z" fill="#3F3D56"/>
<path d="M155.403 128.541C154.725 128.541 154.059 128.719 153.472 129.058C152.876 128.52 152.136 128.167 151.343 128.04C150.549 127.914 149.736 128.02 149.002 128.346C148.268 128.671 147.644 129.203 147.207 129.876C146.77 130.548 146.537 131.333 146.538 132.135H159.267C159.197 131.16 158.76 130.246 158.043 129.58C157.326 128.913 156.383 128.542 155.403 128.541Z" fill="#3F3D56"/>
<path d="M211.913 128.541C211.235 128.541 210.569 128.719 209.982 129.058C209.386 128.52 208.646 128.167 207.853 128.04C207.06 127.914 206.246 128.02 205.512 128.346C204.778 128.671 204.154 129.203 203.717 129.876C203.28 130.548 203.047 131.333 203.048 132.135H215.777C215.707 131.16 215.27 130.246 214.553 129.58C213.836 128.913 212.893 128.542 211.913 128.541Z" fill="#3F3D56"/>
<path d="M239.06 128.541C238.382 128.541 237.716 128.719 237.129 129.058C236.533 128.52 235.793 128.167 235 128.04C234.207 127.914 233.393 128.02 232.659 128.346C231.925 128.671 231.301 129.203 230.864 129.876C230.427 130.548 230.194 131.333 230.195 132.135H242.924C242.854 131.16 242.417 130.246 241.7 129.58C240.983 128.913 240.04 128.542 239.06 128.541Z" fill="#3F3D56"/>
<path d="M35.7342 112.782H31.302L31.302 117.205H33.3566L33.3566 132.111H33.9106L33.9106 117.205H35.7342L35.7342 112.782Z" fill="#3F3D56"/>
<path d="M29.3968 124.675H12.2222L12.2222 125.228H29.3968L29.3968 124.675Z" fill="#3F3D56"/>
<path d="M29.3968 123.292H12.2222L12.2222 123.845H29.3968L29.3968 123.292Z" fill="#3F3D56"/>
<path d="M29.3968 121.91H12.2222L12.2222 122.463H29.3968L29.3968 121.91Z" fill="#3F3D56"/>
</g>
<defs>
<clipPath id="clip0_233_299">
<rect width="246.053" height="132.165" fill="white" transform="translate(-0.00012207 0.255371)"/>
</clipPath>
</defs>
</svg>
